<svg xmlns="http://www.w3.org/2000/svg" xmlns:xlink="http://www.w3.org/1999/xlink" width="500" zoomAndPan="magnify" viewBox="0 0 375 374.999991" height="500" preserveAspectRatio="xMidYMid meet" version="1.0"><path fill="#000000" d="M 165.871094 253.007812 C 168.007812 252.089844 169.5 249.96875 169.5 247.5 L 169.5 231.300781 C 169.5 230.710938 169.546875 230.09375 169.621094 229.46875 C 169.582031 229.480469 169.542969 229.492188 169.5 229.5 C 169.5 229.5 160.5 229.5 158.699219 229.5 C 154.199219 229.5 150.300781 227.699219 148.5 224.101562 C 146.398438 220.199219 145.5 213.601562 140.101562 210 C 139.199219 209.398438 139.800781 208.5 141.601562 208.5 C 143.398438 208.800781 147.300781 211.199219 149.699219 214.5 C 152.398438 217.800781 155.101562 220.5 159.898438 220.5 C 167.359375 220.5 171.359375 220.125 173.765625 218.835938 C 176.566406 214.667969 180.445312 211.5 184.5 211.5 L 184.5 211.425781 C 167.496094 210.878906 156.632812 205.226562 151.574219 196.5 C 140.578125 196.625 131.007812 197.714844 125.542969 198.621094 C 125.371094 197.640625 125.21875 196.652344 125.089844 195.660156 C 130.480469 194.773438 139.621094 193.71875 150.125 193.519531 C 149.789062 192.691406 149.5 191.839844 149.253906 190.972656 C 138.71875 190.4375 129.628906 190.855469 124.691406 191.261719 C 124.632812 190.265625 124.550781 189.273438 124.539062 188.265625 C 129.484375 187.859375 138.328125 187.453125 148.59375 187.933594 C 148.355469 186.433594 148.203125 184.898438 148.203125 183.304688 C 148.203125 178.203125 150.003906 172.804688 153.304688 168.304688 C 151.804688 163.203125 149.703125 152.402344 153.902344 148.503906 C 162.003906 148.503906 167.703125 152.402344 170.402344 154.804688 C 175.5 152.699219 181.199219 151.5 187.5 151.5 C 193.800781 151.5 199.5 152.699219 204.300781 154.800781 C 207 152.398438 212.699219 148.5 220.800781 148.5 C 225.300781 152.699219 222.898438 163.5 221.398438 168.300781 C 224.699219 172.800781 226.5 177.898438 226.199219 183.300781 C 226.199219 184.753906 226.066406 186.152344 225.871094 187.527344 C 236.367188 187.011719 245.449219 187.425781 250.480469 187.832031 C 250.476562 188.84375 250.382812 189.832031 250.328125 190.828125 C 245.316406 190.414062 236.003906 189.988281 225.253906 190.5625 C 224.984375 191.570312 224.660156 192.550781 224.277344 193.503906 C 234.914062 193.640625 244.273438 194.671875 249.921875 195.570312 C 249.792969 196.566406 249.640625 197.554688 249.46875 198.53125 C 243.730469 197.613281 233.953125 196.539062 222.832031 196.484375 C 217.835938 205.117188 207.171875 210.75 190.5 211.40625 L 190.5 211.5 C 198.300781 211.5 205.5 223.199219 205.5 231.300781 L 205.5 247.5 C 205.5 249.96875 206.992188 252.089844 209.128906 253.007812 C 236.609375 243.910156 256.5 217.992188 256.5 187.5 C 256.5 149.453125 225.550781 118.5 187.5 118.5 C 149.449219 118.5 118.5 149.453125 118.5 187.5 C 118.5 217.992188 138.390625 243.910156 165.871094 253.007812 Z M 165.871094 253.007812 " fill-opacity="1" fill-rule="nonzero"/></svg>