<svg xmlns="http://www.w3.org/2000/svg" xmlns:xlink="http://www.w3.org/1999/xlink" width="500" zoomAndPan="magnify" viewBox="0 0 375 374.999991" height="500" preserveAspectRatio="xMidYMid meet" version="1.0"><path fill="#f18eb0" d="M 160.5 121.5 C 138.988281 121.5 121.5 138.988281 121.5 160.5 L 121.5 214.5 C 121.5 236.011719 138.988281 253.5 160.5 253.5 L 214.5 253.5 C 236.011719 253.5 253.5 236.011719 253.5 214.5 L 253.5 160.5 C 253.5 138.988281 236.011719 121.5 214.5 121.5 Z M 223.5 145.5 C 226.800781 145.5 229.5 148.199219 229.5 151.5 C 229.5 154.800781 226.800781 157.5 223.5 157.5 C 220.199219 157.5 217.5 154.800781 217.5 151.5 C 217.5 148.199219 220.199219 145.5 223.5 145.5 Z M 187.5 154.5 C 205.710938 154.5 220.5 169.289062 220.5 187.5 C 220.5 205.710938 205.710938 220.5 187.5 220.5 C 169.289062 220.5 154.5 205.710938 154.5 187.5 C 154.5 169.289062 169.289062 154.5 187.5 154.5 Z M 187.5 160.5 C 172.621094 160.5 160.5 172.621094 160.5 187.5 C 160.5 202.378906 172.621094 214.5 187.5 214.5 C 202.378906 214.5 214.5 202.378906 214.5 187.5 C 214.5 172.621094 202.378906 160.5 187.5 160.5 Z M 187.5 160.5 " fill-opacity="1" fill-rule="nonzero"/></svg>