<svg xmlns="http://www.w3.org/2000/svg" xmlns:xlink="http://www.w3.org/1999/xlink" width="500" zoomAndPan="magnify" viewBox="0 0 375 374.999991" height="500" preserveAspectRatio="xMidYMid meet" version="1.0"><path fill="#000000" d="M 235.5 124.5 L 139.5 124.5 C 131.21875 124.5 124.5 131.21875 124.5 139.5 L 124.5 235.5 C 124.5 243.78125 131.21875 250.5 139.5 250.5 L 235.5 250.5 C 243.78125 250.5 250.5 243.78125 250.5 235.5 L 250.5 139.5 C 250.5 131.21875 243.78125 124.5 235.5 124.5 Z M 163.5 172.5 L 163.5 229.5 L 145.5 229.5 L 145.5 172.5 Z M 145.5 155.910156 C 145.5 151.710938 149.101562 148.5 154.5 148.5 C 159.898438 148.5 163.289062 151.710938 163.5 155.910156 C 163.5 160.109375 160.140625 163.5 154.5 163.5 C 149.101562 163.5 145.5 160.109375 145.5 155.910156 Z M 229.5 229.5 L 211.5 229.5 C 211.5 229.5 211.5 201.71875 211.5 199.5 C 211.5 193.5 208.5 187.5 201 187.378906 L 200.761719 187.378906 C 193.5 187.378906 190.5 193.558594 190.5 199.5 C 190.5 202.230469 190.5 229.5 190.5 229.5 L 172.5 229.5 L 172.5 172.5 L 190.5 172.5 L 190.5 180.179688 C 190.5 180.179688 196.289062 172.5 207.929688 172.5 C 219.839844 172.5 229.5 180.691406 229.5 197.28125 Z M 229.5 229.5 " fill-opacity="1" fill-rule="nonzero"/></svg>